<?xml version="1.0" encoding="UTF-8"?>
<svg width="44px" height="44px" viewBox="0 0 44 44" version="1.1" xmlns="http://www.w3.org/2000/svg" xmlns:xlink="http://www.w3.org/1999/xlink">
    <!-- Generator: Sketch 47 (45396) - http://www.bohemiancoding.com/sketch -->
    <title>Shape</title>
    <desc>Created with Sketch.</desc>
    <defs></defs>
    <g id="Page-1" stroke="none" stroke-width="1" fill="none" fill-rule="evenodd">
        <g id="Desktop-HD-Copy-2" transform="translate(-531.000000, -513.000000)" fill-rule="nonzero" fill="#FFFFFF">
            <g id="Group-3" transform="translate(-204.000000, -6.000000)">
                <g id="Group-2" transform="translate(735.000000, 503.000000)">
                    <path d="M15.6793735,37.0764901 C15.6793735,37.45883 15.3448261,37.7933775 14.9624861,37.7933775 L12.2861064,37.7933775 C11.9037665,37.7933775 11.569219,37.45883 11.569219,37.0764901 L11.569219,34.4001104 C11.569219,34.0177704 11.9037665,33.683223 12.2861064,33.683223 L14.9624861,33.683223 C15.3448261,33.683223 15.6793735,34.0177704 15.6793735,34.4001104 L15.6793735,37.0764901 Z M21.3188879,34.3523179 C21.3188879,33.9699779 20.9843404,33.6354305 20.6020005,33.6354305 L17.9256208,33.6354305 C17.5432808,33.6354305 17.2087334,33.9699779 17.2087334,34.3523179 L17.2087334,37.0286976 C17.2087334,37.4110375 17.5432808,37.745585 17.9256208,37.745585 L20.6020005,37.745585 C20.9843404,37.745585 21.3188879,37.4110375 21.3188879,37.0286976 L21.3188879,34.3523179 Z M26.9584022,34.3523179 C26.9584022,33.9699779 26.6238548,33.6354305 26.2415148,33.6354305 L23.5173426,33.6354305 C23.1350027,33.6354305 22.8004552,33.9699779 22.8004552,34.3523179 L22.8004552,37.0286976 C22.8004552,37.4110375 23.1350027,37.745585 23.5173426,37.745585 L26.1937223,37.745585 C26.5760623,37.745585 26.9106097,37.4110375 26.9106097,37.0286976 L26.9106097,34.3523179 L26.9584022,34.3523179 Z M15.6793735,39.8484547 C15.6793735,39.4661148 15.3448261,39.1315673 14.9624861,39.1315673 L12.2861064,39.1315673 C11.9037665,39.1315673 11.569219,39.4661148 11.569219,39.8484547 L11.569219,42.5248344 C11.569219,42.9071744 11.9037665,43.2417219 12.2861064,43.2417219 L14.9624861,43.2417219 C15.3448261,43.2417219 15.6793735,42.9071744 15.6793735,42.5248344 L15.6793735,39.8484547 Z M21.3188879,39.8484547 C21.3188879,39.4661148 20.9843404,39.1315673 20.6020005,39.1315673 L17.9256208,39.1315673 C17.5432808,39.1315673 17.2087334,39.4661148 17.2087334,39.8484547 L17.2087334,42.5248344 C17.2087334,42.9071744 17.5432808,43.2417219 17.9256208,43.2417219 L20.6020005,43.2417219 C20.9843404,43.2417219 21.3188879,42.9071744 21.3188879,42.5248344 L21.3188879,39.8484547 Z M26.2415148,39.1315673 L23.5173426,39.1315673 C23.1350027,39.1315673 22.8004552,39.4661148 22.8004552,39.8484547 L22.8004552,42.5248344 C22.8004552,42.9071744 23.1350027,43.2417219 23.5173426,43.2417219 L26.1937223,43.2417219 C26.5760623,43.2417219 26.9106097,42.9071744 26.9106097,42.5248344 L26.9106097,39.8484547 C26.9584022,39.4661148 26.6238548,39.1315673 26.2415148,39.1315673 Z M9.32297177,44.6277042 L6.64659207,44.6277042 C6.26425212,44.6277042 5.92970466,44.9622517 5.92970466,45.3445916 L5.92970466,48.0209713 C5.92970466,48.4033113 6.26425212,48.7378587 6.64659207,48.7378587 L9.32297177,48.7378587 C9.70531172,48.7378587 10.0398592,48.4033113 10.0398592,48.0209713 L10.0398592,45.3445916 C10.0398592,44.9144592 9.75310422,44.6277042 9.32297177,44.6277042 Z M10.0398592,39.8484547 C10.0398592,39.4661148 9.70531172,39.1315673 9.32297177,39.1315673 L6.64659207,39.1315673 C6.26425212,39.1315673 5.92970466,39.4661148 5.92970466,39.8484547 L5.92970466,42.5248344 C5.92970466,42.9071744 6.26425212,43.2417219 6.64659207,43.2417219 L9.32297177,43.2417219 C9.70531172,43.2417219 10.0398592,42.9071744 10.0398592,42.5248344 L10.0398592,39.8484547 L10.0398592,39.8484547 Z M20.6020005,44.6277042 L17.9256208,44.6277042 C17.5432808,44.6277042 17.2087334,44.9622517 17.2087334,45.3445916 L17.2087334,48.0209713 C17.2087334,48.4033113 17.5432808,48.7378587 17.9256208,48.7378587 L20.6020005,48.7378587 C20.9843404,48.7378587 21.3188879,48.4033113 21.3188879,48.0209713 L21.3188879,45.3445916 C21.3188879,44.9144592 20.9843404,44.6277042 20.6020005,44.6277042 Z M14.9624861,44.6277042 L12.2861064,44.6277042 C11.9037665,44.6277042 11.569219,44.9622517 11.569219,45.3445916 L11.569219,48.0209713 C11.569219,48.4033113 11.9037665,48.7378587 12.2861064,48.7378587 L14.9624861,48.7378587 C15.3448261,48.7378587 15.6793735,48.4033113 15.6793735,48.0209713 L15.6793735,45.3445916 C15.6793735,44.9144592 15.3448261,44.6277042 14.9624861,44.6277042 Z M31.8332367,37.7933775 C32.2155766,37.7933775 32.5501241,37.45883 32.5501241,37.0764901 L32.5501241,34.4001104 C32.5501241,34.0177704 32.2155766,33.683223 31.8332367,33.683223 L29.156857,33.683223 C28.774517,33.683223 28.4399696,34.0177704 28.4399696,34.4001104 L28.4399696,37.0764901 C28.4399696,37.45883 28.774517,37.7933775 29.156857,37.7933775 L31.8332367,37.7933775 Z M4.16138236,54.568543 L24.61657,54.568543 C24.2820225,53.5171082 24.0908526,52.4178808 24.0908526,51.3186534 L4.16138236,51.3186534 C3.63566492,51.3186534 3.20553247,50.888521 3.20553247,50.3628035 L3.20553247,31.1024283 L35.2742963,31.1024283 L35.2742963,40.0874172 C36.4213161,40.0874172 37.5205435,40.2785872 38.5241859,40.5653422 L38.5241859,24.3636865 C38.5241859,22.0218543 36.6124861,20.157947 34.3184464,20.157947 L29.5869894,20.157947 L29.5869894,17.5293598 C29.5869894,16.6690949 28.9178945,16 28.0576296,16 L25.6680049,16 C24.80774,16 24.1386451,16.6690949 24.1386451,17.5293598 L24.1386451,20.157947 L14.3889762,20.157947 L14.3889762,17.5293598 C14.3889762,16.6690949 13.7198813,16 12.8596164,16 L10.4699916,16 C9.60972673,16 8.94063181,16.6690949 8.94063181,17.5293598 L8.94063181,20.157947 L4.20917486,20.157947 C1.86734263,20.157947 0.00343534155,22.0696468 0.00343534155,24.3636865 L0.00343534155,50.3628035 C-0.0921496474,52.7046358 1.81955013,54.568543 4.16138236,54.568543 Z M35.2265038,43.1461369 C39.6712058,43.1461369 43.3034353,46.7783664 43.3034353,51.2230684 C43.3034353,55.6677704 39.6712058,59.3 35.2265038,59.3 C30.7818018,59.3 27.1495722,55.6677704 27.1495722,51.2230684 C27.1495722,46.7783664 30.7340093,43.1461369 35.2265038,43.1461369 Z M38.8514486,48.2599338 L34.2265038,52.8848786 L32.601559,51.2599338 C32.219219,50.8775938 31.6457091,50.8775938 31.2633691,51.2599338 C30.8810292,51.6422737 30.8810292,52.2157837 31.2633691,52.5981236 L32.8883139,54.2230684 L33.797617,55.1323715 L33.797617,55.1323715 L33.797617,55.1323715 C34.0344846,55.3692391 34.4185229,55.3692391 34.6553905,55.1323715 L34.6600453,55.1277168 L35.5646936,54.2230684 L40.1896384,49.5981236 C40.5719784,49.2157837 40.5719784,48.6422737 40.1896384,48.2599338 C39.8072985,47.9253863 39.185996,47.9253863 38.8514486,48.2599338 Z" id="Shape"></path>
                </g>
            </g>
        </g>
    </g>
</svg>