<?xml version="1.0" encoding="UTF-8"?>
<svg width="60px" height="60px" viewBox="0 0 60 60" version="1.1" xmlns="http://www.w3.org/2000/svg" xmlns:xlink="http://www.w3.org/1999/xlink">
    <!-- Generator: Sketch 46.2 (44496) - http://www.bohemiancoding.com/sketch -->
    <title>Combined Shape</title>
    <desc>Created with Sketch.</desc>
    <defs></defs>
    <g id="Page-1" stroke="none" stroke-width="1" fill="none" fill-rule="evenodd">
        <g id="Select-Card" transform="translate(-690.000000, -67.000000)" fill-rule="nonzero" fill="#FFFFFF">
            <path d="M728,93.8066909 C729.778788,96.1332308 731.191453,97.991652 731.860202,98.8942488 C737.451514,106.39309 741.671153,109.725246 750,110.291533 L750,116.866431 C750,122.457777 745.414194,127 739.753136,127 L738.625574,127 C731.819517,127 728.303151,121.563638 726.530437,119.2508 L712,100.360636 L712,100.222492 C710.208404,97.8823345 708.785018,96.0121573 708.112965,95.105796 C702.534823,87.606968 698.306138,84.2748179 690,83.7085312 L690,77.1217229 C690,71.5184651 694.595132,66.9762498 700.254707,67.0000934 L701.354049,67.0000934 C708.165315,67.0000934 711.684372,72.4364457 713.458442,74.7492797 L728,93.6394115 L728,93.8066909 Z M707.992984,102.605808 L707.998762,123.671918 C708.047315,125.459368 706.661227,126.948851 704.901704,127 L700.186779,127 C694.558916,127 690,122.53321 690,117.021625 L690,89 C697.540413,89 703.075826,95.3215941 707.992984,102.605808 Z M732.001238,91.374034 L732.001238,70.3301391 C731.952669,68.5415847 733.339203,67.0511811 735.099291,67 L739.809949,67 C745.43962,67 750,71.4695518 750,76.984544 L750,105 C742.462946,105 736.925755,98.6686244 732.001238,91.374034 Z" id="Combined-Shape"></path>
        </g>
    </g>
</svg>