<?xml version="1.0" encoding="UTF-8"?>
<svg width="532px" height="160px" viewBox="0 0 532 160" version="1.1" xmlns="http://www.w3.org/2000/svg" xmlns:xlink="http://www.w3.org/1999/xlink">
    <!-- Generator: Sketch 47.1 (45422) - http://www.bohemiancoding.com/sketch -->
    <title>logo + nairabox</title>
    <desc>Created with Sketch.</desc>
    <defs></defs>
    <g id="Page-1" stroke="none" stroke-width="1" fill="none" fill-rule="evenodd">
        <path d="M9,50.0029678 C9,35.0896404 16.0910725,28 31.0029678,28 L76.9970322,28 C91.9103596,28 99,35.0910725 99,50.0029678 L99,95.9970322 C99,110.91036 91.9089275,118 76.9970322,118 L31.0029678,118 C16.0896404,118 9,110.908927 9,95.9970322 L9,50.0029678 Z M31.1052634,94.315789 L42.6353839,94.315789 L42.6353839,74.8799976 C42.6353839,70.8547375 43.720344,67.7896772 45.890298,65.6847246 C48.0234724,63.5428427 50.745069,62.4719181 54.0551677,62.4719181 C57.3652665,62.4719181 60.0684739,63.5428427 62.1648697,65.6847246 C64.2980452,67.7896772 65.3646161,70.8547375 65.3646161,74.8799976 L65.3646161,94.315789 L76.8947366,94.315789 L76.8947366,70.8916859 C76.710843,64.3183255 74.6696452,59.3329859 70.7710849,55.9355196 C66.8357449,52.5749804 62.4959021,50.8947366 57.7514272,50.8947366 C51.6093547,50.8947366 46.6442797,52.6725955 42.856056,57.2148617 L42.6353839,57.7081022 L42.6353839,54.0810505 L31.1052634,51.6148491 L31.1052634,94.315789 L31.1052634,94.315789 Z" id="logo" fill="#FFFFFF"></path>
        <path d="M143.335869,70.6713761 L143.335869,99.8207525 L132,99.8207525 L132,45.9753766 L143.335869,45.9753766 L143.335869,55.7930485 C145.157714,52.486737 147.671148,49.8889597 150.876246,47.9996388 C154.081343,46.1103179 157.539424,45.1656717 161.25059,45.1656717 C167.323407,45.1656717 172.232194,47.0212268 175.977097,50.7323929 C179.722001,54.4435589 181.594425,59.8078002 181.594425,66.8252778 L181.594425,99.8207525 L170.258557,99.8207525 L170.258557,70.2665236 C170.258557,60.347589 166.142598,55.3881961 157.910557,55.3881961 C153.996964,55.3881961 150.58949,56.6870847 147.688032,59.2849009 C144.786575,61.8827171 143.335869,65.6781709 143.335869,70.6713761 L143.335869,70.6713761 Z M235.735006,99.8207525 L225.411269,99.8207525 L225.411269,92.6346215 C220.957869,97.9652054 214.986355,100.630457 207.496548,100.630457 C201.896061,100.630457 197.257173,99.0448012 193.579745,95.8734411 C189.902316,92.7020811 188.06363,88.4680415 188.06363,83.1711955 C188.06363,77.8743494 190.020397,73.9102088 193.933991,71.2786547 C197.847584,68.6471007 203.14435,67.3313433 209.824449,67.3313433 L224.500351,67.3313433 L224.500351,65.3070811 C224.500351,58.154652 220.519341,54.5784912 212.557203,54.5784912 C207.563998,54.5784912 202.368444,56.400309 196.970384,60.0439992 L191.909728,52.9590813 C198.454876,47.7634489 205.877096,45.1656717 214.176613,45.1656717 C220.519333,45.1656717 225.698019,46.7681966 229.712826,49.9732945 C233.727633,53.1783925 235.735006,58.2221288 235.735006,65.1046549 L235.735006,99.8207525 Z M224.399137,79.7805562 L224.399137,75.2259661 L211.646285,75.2259661 C203.48172,75.2259661 199.399499,77.790006 199.399499,82.9181627 C199.399499,85.5497168 200.41162,87.5570901 202.435892,88.9403429 C204.460164,90.3235957 207.277234,91.0152117 210.887187,91.0152117 C214.497139,91.0152117 217.651583,90.0030907 220.350613,87.9788183 C223.049643,85.954546 224.399137,83.2218192 224.399137,79.7805562 L224.399137,79.7805562 Z M257.588604,99.8207525 L246.252735,99.8207525 L246.252735,45.9753766 L257.588604,45.9753766 L257.588604,99.8207525 Z M246,34 C246,32.366189 246.591543,30.9577524 247.774648,29.7746479 C248.957752,28.5915434 250.366189,28 252,28 C253.633811,28 255.042248,28.5915434 256.225352,29.7746479 C257.408457,30.9577524 258,32.366189 258,34 C258,35.633811 257.408457,37.0422476 256.225352,38.2253521 C255.042248,39.4084566 253.633811,40 252,40 C250.366189,40 248.957752,39.4084566 247.774648,38.2253521 C246.591543,37.0422476 246,35.633811 246,34 L246,34 Z M296.95207,56.6027534 C291.351583,56.6027534 287.134413,58.4245712 284.300431,62.0682615 C281.46645,65.7119518 280.049481,70.60387 280.049481,76.7441628 L280.049481,99.8207525 L268.713612,99.8207525 L268.713612,45.9753766 L280.049481,45.9753766 L280.049481,56.8051796 C281.871326,53.4313923 284.351022,50.6649283 287.488644,48.5057044 C290.626267,46.3464805 293.949397,45.2331474 297.458136,45.1656717 L297.559349,56.6027534 L296.95207,56.6027534 L296.95207,56.6027534 Z M346.740487,99.8207525 L336.41675,99.8207525 L336.41675,92.6346215 C331.963351,97.9652054 325.991837,100.630457 318.502029,100.630457 C312.901542,100.630457 308.262654,99.0448012 304.585226,95.8734411 C300.907798,92.7020811 299.069111,88.4680415 299.069111,83.1711955 C299.069111,77.8743494 301.025879,73.9102088 304.939472,71.2786547 C308.853065,68.6471007 314.149832,67.3313433 320.829931,67.3313433 L335.505832,67.3313433 L335.505832,65.3070811 C335.505832,58.154652 331.524823,54.5784912 323.562685,54.5784912 C318.569479,54.5784912 313.373925,56.400309 307.975865,60.0439992 L302.91521,52.9590813 C309.460357,47.7634489 316.882578,45.1656717 325.182094,45.1656717 C331.524814,45.1656717 336.7035,46.7681966 340.718307,49.9732945 C344.733114,53.1783925 346.740487,58.2221288 346.740487,65.1046549 L346.740487,99.8207525 Z M335.404619,79.7805562 L335.404619,75.2259661 L322.651767,75.2259661 C314.487201,75.2259661 310.40498,77.790006 310.40498,82.9181627 C310.40498,85.5497168 311.417101,87.5570901 313.441373,88.9403429 C315.465646,90.3235957 318.282716,91.0152117 321.892668,91.0152117 C325.502621,91.0152117 328.657064,90.0030907 331.356094,87.9788183 C334.055124,85.954546 335.404619,83.2218192 335.404619,79.7805562 L335.404619,79.7805562 Z M412.31815,72.5944252 C412.31815,80.8939419 409.770979,87.6414153 404.67656,92.8370477 C399.582141,98.0326802 393.644365,100.630457 386.863052,100.630457 C380.08174,100.630457 373.992145,97.6615691 368.594085,91.7237035 L368.594085,99.8207525 L357.258217,99.8207525 L357.258217,28 L368.594085,28 L368.594085,55.3881961 C373.047485,48.5731457 378.884049,45.1656717 386.103954,45.1656717 C393.323859,45.1656717 399.497797,47.6622368 404.625953,52.655442 C409.75411,57.6486472 412.31815,64.2949085 412.31815,72.5944252 Z M373.047462,85.6003102 C376.151347,88.8728839 379.929932,90.5091461 384.383331,90.5091461 C388.83673,90.5091461 392.716527,88.8897525 396.022839,85.6509167 C399.32915,82.4120809 400.982281,78.2117788 400.982281,73.0498842 C400.982281,67.8879897 399.362888,63.6033441 396.124052,60.1958189 C392.885216,56.7882937 389.005419,55.0845567 384.484544,55.0845567 C379.963669,55.0845567 376.151347,56.7882937 373.047462,60.1958189 C369.943578,63.6033441 368.391659,67.871121 368.391659,72.9992777 C368.391659,78.1274343 369.943578,82.3277365 373.047462,85.6003102 L373.047462,85.6003102 Z M444.799125,90.5091461 C449.724854,90.5091461 453.790207,88.8728839 456.995305,85.6003102 C460.200403,82.3277365 461.802928,78.093697 461.802928,72.8980645 C461.802928,67.7024321 460.200403,63.4683926 456.995305,60.1958189 C453.790207,56.9232452 449.724854,55.2869829 444.799125,55.2869829 C439.873395,55.2869829 435.808043,56.9232452 432.602945,60.1958189 C429.397847,63.4683926 427.795322,67.7024321 427.795322,72.8980645 C427.795322,78.093697 429.397847,82.3277365 432.602945,85.6003102 C435.808043,88.8728839 439.873395,90.5091461 444.799125,90.5091461 L444.799125,90.5091461 Z M444.799125,100.630457 C436.702035,100.630457 429.954562,97.9483367 424.556502,92.584015 C419.158442,87.2196932 416.459453,80.6577753 416.459453,72.8980645 C416.459453,65.1383538 419.158442,58.5764359 424.556502,53.2121141 C429.954562,47.8477923 436.702035,45.1656717 444.799125,45.1656717 C452.896214,45.1656717 459.643688,47.8477923 465.041747,53.2121141 C470.439807,58.5764359 473.138796,65.1383538 473.138796,72.8980645 C473.138796,80.6577753 470.439807,87.2196932 465.041747,92.584015 C459.643688,97.9483367 452.896214,100.630457 444.799125,100.630457 L444.799125,100.630457 Z M489.32446,45.9753766 L500.862755,63.6876713 L512.805902,45.9753766 L526.267246,45.9753766 L507.441607,72.2907859 L527.076951,99.8207525 L513.109541,99.8207525 L500.255476,81.9060316 L487.70505,99.8207525 L474.446132,99.8207525 L493.575411,72.391999 L475.458263,45.9753766 L489.32446,45.9753766 Z" id="nairabox" fill="#FFFFFF"></path>
        <path d="M382.0375,119.85 C383.229173,120.950005 383.825,122.516657 383.825,124.55 C383.825,127.733349 383.008342,130.220824 381.375,132.0125 C379.741658,133.804176 377.391682,134.7 374.325,134.7 C372.424991,134.7 370.316678,134.625001 368,134.475 L368.825,129.725 L369.975,118.3 L377.05,118.2 C379.183344,118.2 380.845827,118.749995 382.0375,119.85 L382.0375,119.85 Z M378.55,125.275 C378.55,124.124994 378.379168,123.304169 378.0375,122.8125 C377.695832,122.320831 377.141671,122.075 376.375,122.075 C375.75833,122.075 375.125003,122.108333 374.475,122.175 L373.425,129.225 L373.3,130.8 C374.300005,130.933334 375.024998,131 375.475,131 C377.52501,131 378.55,129.091686 378.55,125.275 L378.55,125.275 Z M398.4625,119.7625 C399.654173,120.937506 400.25,122.724988 400.25,125.125 C400.25,126.991676 399.90417,128.654159 399.2125,130.1125 C398.52083,131.570841 397.50834,132.712496 396.175,133.5375 C394.84166,134.362504 393.241676,134.775 391.375,134.775 C389.191656,134.775 387.500006,134.179173 386.3,132.9875 C385.099994,131.795827 384.5,129.991679 384.5,127.575 C384.5,125.708324 384.84583,124.054174 385.5375,122.6125 C386.22917,121.170826 387.245827,120.041671 388.5875,119.225 C389.929173,118.408329 391.533324,118 393.4,118 C395.583344,118 397.270827,118.587494 398.4625,119.7625 L398.4625,119.7625 Z M391.1625,122.425 C390.720831,122.725002 390.370835,123.287496 390.1125,124.1125 C389.854165,124.937504 389.725,126.116659 389.725,127.65 C389.725,128.550005 389.783333,129.241664 389.9,129.725 C390.016667,130.208336 390.229165,130.558332 390.5375,130.775 C390.845835,130.991668 391.299997,131.1 391.9,131.1 C392.550003,131.1 393.099998,130.950001 393.55,130.65 C394.000002,130.349998 394.354165,129.787504 394.6125,128.9625 C394.870835,128.137496 395,126.958341 395,125.425 C395,124.541662 394.941667,123.854169 394.825,123.3625 C394.708333,122.870831 394.495835,122.516668 394.1875,122.3 C393.879165,122.083332 393.425003,121.975 392.825,121.975 C392.15833,121.975 391.604169,122.124999 391.1625,122.425 L391.1625,122.425 Z M409.3,134.475 L404.3,134.475 L405.15,129.725 L406.3,118.3 L411.375,118.3 L409.75,129.225 L409.3,134.475 Z M425,122.275 L421.725,122.125 L421.4,122.125 L420.4,129.225 L419.95,134.475 L414.975,134.475 L415.825,129.725 L416.625,122.125 L416.3,122.125 L412.95,122.275 L412.7,121.925 L413.425,118.3 L425.475,118.3 L425.7,118.65 L425,122.275 Z M442.65,139.6 L442.3,139.775 C439.649987,138.358326 437.316677,136.691676 435.3,134.775 L435.225,134.775 C433.041656,134.775 431.362506,134.179173 430.1875,132.9875 C429.012494,131.795827 428.425,129.991679 428.425,127.575 C428.425,125.708324 428.774997,124.054174 429.475,122.6125 C430.175004,121.170826 431.20416,120.041671 432.5625,119.225 C433.92084,118.408329 435.533324,118 437.4,118 C439.583344,118 441.258327,118.587494 442.425,119.7625 C443.591672,120.937506 444.175,122.724988 444.175,125.125 C444.175,127.02501 443.812504,128.712493 443.0875,130.1875 C442.362496,131.662507 441.325007,132.799996 439.975,133.6 C441.641675,134.550005 443.408324,135.349997 445.275,136 L445.425,136.45 C444.591662,137.73334 443.666672,138.783329 442.65,139.6 L442.65,139.6 Z M433.825,129.725 C433.941667,130.208336 434.154165,130.558332 434.4625,130.775 C434.770835,130.991668 435.224997,131.1 435.825,131.1 C436.475003,131.1 437.024998,130.950001 437.475,130.65 C437.925002,130.349998 438.279165,129.787504 438.5375,128.9625 C438.795835,128.137496 438.925,126.958341 438.925,125.425 C438.925,124.541662 438.866667,123.854169 438.75,123.3625 C438.633333,122.870831 438.420835,122.516668 438.1125,122.3 C437.804165,122.083332 437.350003,121.975 436.75,121.975 C436.08333,121.975 435.529169,122.124999 435.0875,122.425 C434.645831,122.725002 434.295835,123.287496 434.0375,124.1125 C433.779165,124.937504 433.65,126.116659 433.65,127.65 C433.65,128.550005 433.708333,129.241664 433.825,129.725 L433.825,129.725 Z M459.3,129.075 C459.066665,130.925009 458.316673,132.337495 457.05,133.3125 C455.783327,134.287505 454.033344,134.775 451.8,134.775 C449.816657,134.775 448.270839,134.375004 447.1625,133.575 C446.054161,132.774996 445.5,131.633341 445.5,130.15 C445.5,129.799998 445.525,129.441668 445.575,129.075 L445.95,126.5 L446.8,118.3 L451.8,118.3 L450.35,128.4 C450.316666,128.733335 450.3,128.958333 450.3,129.075 C450.3,129.69167 450.449998,130.141665 450.75,130.425 C451.050002,130.708335 451.541663,130.85 452.225,130.85 C453.008337,130.85 453.599998,130.658335 454,130.275 C454.400002,129.891665 454.641666,129.266671 454.725,128.4 L455.725,118.3 L460.8,118.3 L459.625,126.5 L459.3,129.075 Z M466.475,134.475 L461.475,134.475 L462.325,129.725 L463.475,118.3 L468.55,118.3 L466.925,129.225 L466.475,134.475 Z M482.975,118.7 L481.65,122.675 L481.3,122.85 C480.899998,122.616666 480.425003,122.429167 479.875,122.2875 C479.324997,122.145833 478.808336,122.075 478.325,122.075 C477.058327,122.075 476.162503,122.474996 475.6375,123.275 C475.112497,124.075004 474.85,125.349991 474.85,127.1 C474.85,128.316673 475.070831,129.20833 475.5125,129.775 C475.954169,130.341669 476.641662,130.625 477.575,130.625 C478.675005,130.625 479.733328,130.450002 480.75,130.1 L481.1,130.325 L480.225,134.275 C479.191662,134.591668 478.091672,134.75 476.925,134.75 C474.524988,134.75 472.687506,134.158339 471.4125,132.975 C470.137494,131.791661 469.5,130.100011 469.5,127.9 C469.5,124.799985 470.304159,122.379175 471.9125,120.6375 C473.520841,118.895825 475.808319,118.025 478.775,118.025 C480.358341,118.025 481.758327,118.249998 482.975,118.7 L482.975,118.7 Z M497.325,133.425 L497.2,133.975 C495.383324,134.375002 493.691675,134.641666 492.125,134.775 L491.6,134.475 C490.26666,131.558319 489.175004,129.07501 488.325,127.025 L488,129.225 L487.55,134.475 L482.55,134.475 L483.4,129.725 L484.55,118.3 L489.625,118.3 L488.625,125.075 L492.35,120.05 L493.425,118.3 L498.7,118.3 L492.975,126.225 C494.125006,128.358344 495.574991,130.75832 497.325,133.425 L497.325,133.425 Z M504.45,124.425 L506.9,124.425 L509.525,124.35 L509.75,124.7 L509,128.35 L506.125,128.275 L503.875,128.275 L503.725,129.225 L503.6,130.65 L506,130.65 L510.175,130.5 L510.4,130.85 L509.65,134.475 L498.275,134.475 L499.1,129.725 L500.275,118.3 L511.85,118.3 L512.075,118.65 L511.3,122.275 L507.35,122.125 L504.775,122.125 L504.45,124.425 Z M525.6875,125.7625 C525.112497,126.737505 524.300005,127.55833 523.25,128.225 C524.266672,130.141676 525.233329,131.833326 526.15,133.3 L526.025,133.85 C524.258325,134.366669 522.550008,134.675 520.9,134.775 L520.475,134.375 C519.624996,131.874987 519.100001,130.300003 518.9,129.65 L517.2,129.65 L516.775,134.475 L511.775,134.475 L512.625,129.725 L513.775,118.3 L521.175,118.275 C522.841675,118.275 524.154162,118.654163 525.1125,119.4125 C526.070838,120.170837 526.55,121.233326 526.55,122.6 C526.55,123.733339 526.262503,124.787495 525.6875,125.7625 L525.6875,125.7625 Z M520.7375,122.175 C520.429165,121.908332 519.933337,121.758334 519.25,121.725 L518.325,121.8 L517.7,126 L519.525,126.1 C520.125003,125.849999 520.554165,125.508336 520.8125,125.075 C521.070835,124.641665 521.2,124.09167 521.2,123.425 C521.2,122.858331 521.045835,122.441668 520.7375,122.175 L520.7375,122.175 Z" id="DO-IT-QUICKER" fill="#F4F4F4"></path>
    </g>
</svg>